999
"DXF R12 Output" (www.mydxf.blogspot.com)
 0 
SECTION
 2 
HEADER
 9 
$ACADVER
 1 
AC1009
 9 
$EXTMIN
 10 
 0 
 20 
 0 
 9 
$EXTMAX
 10 
 8.5 
 20 
 11 
 0 
ENDSEC
 0 
SECTION
 2 
ENTITIES
0
LINE
8
Layer 1
10
0.793749
20
297.794000
11
-0.793749
21
296.206000
0
LINE
8
Layer 1
10
0.000000
20
298.323000
11
0.000000
21
295.677000
0
LINE
8
Layer 1
10
2.116660
20
295.942000
11
1.058330
21
294.883670
0
LINE
8
Layer 1
10
1.587500
20
296.471000
11
0.529170
21
295.412670
0
LINE
8
Layer 1
10
1.058330
20
297.000000
11
0.000000
21
295.941670
0
LINE
8
0
10
40.410500
20
39.205600
11
90.410400
21
39.205600
0
LINE
8
0
10
90.410400
20
39.205600
11
90.410400
21
60.205600
0
LINE
8
0
10
90.410400
20
60.205600
11
88.710400
21
60.205600
0
LINE
8
0
10
88.710400
20
60.205600
11
88.321159
21
60.284187
0
LINE
8
0
10
88.321159
20
60.284187
11
88.003301
21
60.498494
0
LINE
8
0
10
88.003301
20
60.498494
11
87.788995
21
60.816353
0
LINE
8
0
10
87.788995
20
60.816353
11
87.710409
21
61.205594
0
LINE
8
0
10
87.710409
20
61.205594
11
87.710400
21
62.611500
0
LINE
8
0
10
87.710400
20
62.611500
11
90.903500
21
62.611500
0
LINE
8
0
10
90.903500
20
62.611500
11
90.903500
21
64.811500
0
LINE
8
0
10
90.903500
20
64.811500
11
87.710400
21
64.811500
0
LINE
8
0
10
87.710400
20
64.811500
11
87.710400
21
66.305500
0
LINE
8
0
10
87.710400
20
66.305500
11
43.110500
21
66.305500
0
LINE
8
0
10
43.110500
20
66.305500
11
43.110500
21
64.811500
0
LINE
8
0
10
43.110500
20
64.811500
11
39.917400
21
64.811500
0
LINE
8
0
10
39.917400
20
64.811500
11
39.917400
21
62.611500
0
LINE
8
0
10
39.917400
20
62.611500
11
43.110500
21
62.611500
0
LINE
8
0
10
43.110500
20
62.611500
11
43.110500
21
61.205500
0
LINE
8
0
10
43.110500
20
61.205500
11
43.034376
21
60.822814
0
LINE
8
0
10
43.034376
20
60.822814
11
42.817598
21
60.498390
0
LINE
8
0
10
42.817598
20
60.498390
11
42.493168
21
60.281620
0
LINE
8
0
10
42.493168
20
60.281620
11
42.110480
21
60.205506
0
LINE
8
0
10
42.110480
20
60.205506
11
40.410500
21
60.205600
0
LINE
8
0
10
40.410500
20
60.205600
11
40.410500
21
39.205600
0
LINE
8
0
10
87.710400
20
62.611500
11
90.903500
21
62.611500
0
LINE
8
0
10
90.903500
20
62.611500
11
90.903500
21
64.811500
0
LINE
8
0
10
90.903500
20
64.811500
11
87.710400
21
64.811500
0
LINE
8
0
10
87.710400
20
64.811500
11
87.710400
21
66.305500
0
LINE
8
0
10
87.710400
20
66.305500
11
43.110500
21
66.305500
0
LINE
8
0
10
43.110500
20
66.305500
11
43.110500
21
64.811500
0
LINE
8
0
10
43.110500
20
64.811500
11
39.917400
21
64.811500
0
LINE
8
0
10
39.917400
20
64.811500
11
39.917400
21
62.611500
0
LINE
8
0
10
39.917400
20
62.611500
11
43.110500
21
62.611500
0
LINE
8
0
10
43.110500
20
62.611500
11
43.110500
21
61.205600
0
LINE
8
0
10
43.110500
20
61.205600
11
43.034378
21
60.822912
0
LINE
8
0
10
43.034378
20
60.822912
11
42.817600
21
60.498487
0
LINE
8
0
10
42.817600
20
60.498487
11
42.493169
21
60.281715
0
LINE
8
0
10
42.493169
20
60.281715
11
42.110480
21
60.205601
0
LINE
8
0
10
42.110480
20
60.205601
11
40.410500
21
60.205600
0
LINE
8
0
10
40.410500
20
60.205600
11
40.410500
21
39.205600
0
LINE
8
0
10
40.410500
20
39.205600
11
90.410400
21
39.205600
0
LINE
8
0
10
90.410400
20
39.205600
11
90.410400
21
60.205600
0
LINE
8
0
10
90.410400
20
60.205600
11
88.710400
21
60.205600
0
LINE
8
0
10
88.710400
20
60.205600
11
88.321158
21
60.284187
0
LINE
8
0
10
88.321158
20
60.284187
11
88.003299
21
60.498496
0
LINE
8
0
10
88.003299
20
60.498496
11
87.788993
21
60.816356
0
LINE
8
0
10
87.788993
20
60.816356
11
87.710409
21
61.205599
0
LINE
8
0
10
87.710409
20
61.205599
11
87.710400
21
62.611500
0
LINE
8
0
10
117.210000
20
90.305500
11
118.183110
21
90.501965
0
LINE
8
0
10
118.183110
20
90.501965
11
118.977760
21
91.037737
0
LINE
8
0
10
118.977760
20
91.037737
11
119.513529
21
91.832390
0
LINE
8
0
10
119.513529
20
91.832390
11
119.709990
21
92.805500
0
LINE
8
0
10
119.709990
20
92.805500
11
119.710000
21
93.105500
0
LINE
8
0
10
119.710000
20
93.105500
11
119.513539
21
94.078610
0
LINE
8
0
10
119.513539
20
94.078610
11
118.977770
21
94.873263
0
LINE
8
0
10
118.977770
20
94.873263
11
118.183120
21
95.409035
0
LINE
8
0
10
118.183120
20
95.409035
11
117.210010
21
95.605500
0
LINE
8
0
10
117.210010
20
95.605500
11
115.710000
21
95.605500
0
LINE
8
0
10
115.710000
20
95.605500
11
115.710000
21
98.305500
0
LINE
8
0
10
115.710000
20
98.305500
11
108.710000
21
98.305500
0
LINE
8
0
10
108.710000
20
98.305500
11
108.710000
21
95.605500
0
LINE
8
0
10
108.710000
20
95.605500
11
101.710000
21
95.605500
0
LINE
8
0
10
101.710000
20
95.605500
11
101.710000
21
98.305500
0
LINE
8
0
10
101.710000
20
98.305500
11
97.410400
21
98.305500
0
LINE
8
0
10
97.410400
20
98.305500
11
97.410400
21
88.305500
0
LINE
8
0
10
97.410400
20
88.305500
11
94.710400
21
88.305500
0
LINE
8
0
10
94.710400
20
88.305500
11
94.710400
21
78.305500
0
LINE
8
0
10
94.710400
20
78.305500
11
97.410400
21
78.305500
0
LINE
8
0
10
97.410400
20
78.305500
11
97.410400
21
68.305500
0
LINE
8
0
10
97.410400
20
68.305500
11
115.710000
21
68.305500
0
LINE
8
0
10
115.710000
20
68.305500
11
115.710000
21
90.305500
0
LINE
8
0
10
115.710000
20
90.305500
11
117.210000
21
90.305500
0
LINE
8
0
10
118.826000
20
92.795600
11
118.584846
21
93.695600
0
LINE
8
0
10
118.584846
20
93.695600
11
117.926000
21
94.354446
0
LINE
8
0
10
117.926000
20
94.354446
11
117.026000
21
94.595600
0
LINE
8
0
10
117.026000
20
94.595600
11
116.126000
21
94.354446
0
LINE
8
0
10
116.126000
20
94.354446
11
115.467154
21
93.695600
0
LINE
8
0
10
115.467154
20
93.695600
11
115.226000
21
92.795600
0
LINE
8
0
10
115.226000
20
92.795600
11
115.467154
21
91.895600
0
LINE
8
0
10
115.467154
20
91.895600
11
116.126000
21
91.236754
0
LINE
8
0
10
116.126000
20
91.236754
11
117.026000
21
90.995600
0
LINE
8
0
10
117.026000
20
90.995600
11
117.926000
21
91.236754
0
LINE
8
0
10
117.926000
20
91.236754
11
118.584846
21
91.895600
0
LINE
8
0
10
118.584846
20
91.895600
11
118.826000
21
92.795600
0
LINE
8
0
10
118.826000
20
92.795600
11
118.826000
21
92.795600
0
LINE
8
0
10
44.284400
20
88.755500
11
44.284400
21
76.755500
0
LINE
8
0
10
44.284400
20
76.755500
11
54.284400
21
76.755500
0
LINE
8
0
10
54.284400
20
76.755500
11
54.284400
21
88.755500
0
LINE
8
0
10
54.284400
20
88.755500
11
44.284400
21
88.755500
0
LINE
8
0
10
41.010500
20
86.605500
11
43.710500
21
86.605500
0
LINE
8
0
10
43.710500
20
86.605500
11
43.710500
21
90.905500
0
LINE
8
0
10
43.710500
20
90.905500
11
41.010500
21
90.905500
0
LINE
8
0
10
41.010500
20
90.905500
11
41.010500
21
93.605500
0
LINE
8
0
10
41.010500
20
93.605500
11
51.010500
21
93.605500
0
LINE
8
0
10
51.010500
20
93.605500
11
51.010500
21
90.905500
0
LINE
8
0
10
51.010500
20
90.905500
11
61.010400
21
90.905500
0
LINE
8
0
10
61.010400
20
90.905500
11
61.010400
21
93.605500
0
LINE
8
0
10
61.010400
20
93.605500
11
71.010400
21
93.605500
0
LINE
8
0
10
71.010400
20
93.605500
11
71.010400
21
90.905500
0
LINE
8
0
10
71.010400
20
90.905500
11
81.010400
21
90.905500
0
LINE
8
0
10
81.010400
20
90.905500
11
81.010400
21
93.605500
0
LINE
8
0
10
81.010400
20
93.605500
11
91.010400
21
93.605500
0
LINE
8
0
10
91.010400
20
93.605500
11
91.010400
21
90.905500
0
LINE
8
0
10
91.010400
20
90.905500
11
88.310400
21
90.905500
0
LINE
8
0
10
88.310400
20
90.905500
11
88.310400
21
86.605500
0
LINE
8
0
10
88.310400
20
86.605500
11
91.010400
21
86.605500
0
LINE
8
0
10
91.010400
20
86.605500
11
91.010400
21
79.605500
0
LINE
8
0
10
91.010400
20
79.605500
11
88.310400
21
79.605500
0
LINE
8
0
10
88.310400
20
79.605500
11
88.310400
21
72.605500
0
LINE
8
0
10
88.310400
20
72.605500
11
43.710500
21
72.605500
0
LINE
8
0
10
43.710500
20
72.605500
11
43.710500
21
79.605500
0
LINE
8
0
10
43.710500
20
79.605500
11
41.010500
21
79.605500
0
LINE
8
0
10
41.010500
20
79.605500
11
41.010500
21
86.605500
0
LINE
8
0
10
18.372800
20
94.849600
11
18.372800
21
85.849600
0
LINE
8
0
10
18.372800
20
85.849600
11
30.372800
21
85.849600
0
LINE
8
0
10
30.372800
20
85.849600
11
30.372800
21
94.849600
0
LINE
8
0
10
30.372800
20
94.849600
11
18.372800
21
94.849600
0
LINE
8
0
10
11.310500
20
92.805500
11
11.500801
21
91.848791
0
LINE
8
0
10
11.500801
20
91.848791
11
12.042733
21
91.037733
0
LINE
8
0
10
12.042733
20
91.037733
11
12.853791
21
90.495801
0
LINE
8
0
10
12.853791
20
90.495801
11
13.810500
21
90.305500
0
LINE
8
0
10
13.810500
20
90.305500
11
15.310500
21
90.305500
0
LINE
8
0
10
15.310500
20
90.305500
11
15.310500
21
68.305500
0
LINE
8
0
10
15.310500
20
68.305500
11
22.310500
21
68.305500
0
LINE
8
0
10
22.310500
20
68.305500
11
22.310500
21
71.005500
0
LINE
8
0
10
22.310500
20
71.005500
11
29.310500
21
71.005500
0
LINE
8
0
10
29.310500
20
71.005500
11
29.310500
21
68.305500
0
LINE
8
0
10
29.310500
20
68.305500
11
33.610500
21
68.305500
0
LINE
8
0
10
33.610500
20
68.305500
11
33.610500
21
78.305500
0
LINE
8
0
10
33.610500
20
78.305500
11
36.310500
21
78.305500
0
LINE
8
0
10
36.310500
20
78.305500
11
36.310500
21
88.305500
0
LINE
8
0
10
36.310500
20
88.305500
11
33.610500
21
88.305500
0
LINE
8
0
10
33.610500
20
88.305500
11
33.610500
21
98.305500
0
LINE
8
0
10
33.610500
20
98.305500
11
29.310500
21
98.305500
0
LINE
8
0
10
29.310500
20
98.305500
11
29.310500
21
95.605500
0
LINE
8
0
10
29.310500
20
95.605500
11
22.310500
21
95.605500
0
LINE
8
0
10
22.310500
20
95.605500
11
22.310500
21
98.305500
0
LINE
8
0
10
22.310500
20
98.305500
11
15.310500
21
98.305500
0
LINE
8
0
10
15.310500
20
98.305500
11
15.310500
21
95.605500
0
LINE
8
0
10
15.310500
20
95.605500
11
13.810500
21
95.605500
0
LINE
8
0
10
13.810500
20
95.605500
11
12.853791
21
95.415199
0
LINE
8
0
10
12.853791
20
95.415199
11
12.042733
21
94.873267
0
LINE
8
0
10
12.042733
20
94.873267
11
11.500801
21
94.062209
0
LINE
8
0
10
11.500801
20
94.062209
11
11.310500
21
93.105500
0
LINE
8
0
10
11.310500
20
93.105500
11
11.310500
21
92.805500
0
LINE
8
0
10
15.795200
20
92.795600
11
15.653747
21
93.496241
0
LINE
8
0
10
15.653747
20
93.496241
11
15.267992
21
94.068392
0
LINE
8
0
10
15.267992
20
94.068392
11
14.695841
21
94.454147
0
LINE
8
0
10
14.695841
20
94.454147
11
13.995200
21
94.595600
0
LINE
8
0
10
13.995200
20
94.595600
11
13.294559
21
94.454147
0
LINE
8
0
10
13.294559
20
94.454147
11
12.722408
21
94.068392
0
LINE
8
0
10
12.722408
20
94.068392
11
12.336653
21
93.496241
0
LINE
8
0
10
12.336653
20
93.496241
11
12.195200
21
92.795600
0
LINE
8
0
10
12.195200
20
92.795600
11
12.336653
21
92.094959
0
LINE
8
0
10
12.336653
20
92.094959
11
12.722408
21
91.522808
0
LINE
8
0
10
12.722408
20
91.522808
11
13.294559
21
91.137053
0
LINE
8
0
10
13.294559
20
91.137053
11
13.995200
21
90.995600
0
LINE
8
0
10
13.995200
20
90.995600
11
14.695841
21
91.137053
0
LINE
8
0
10
14.695841
20
91.137053
11
15.267992
21
91.522808
0
LINE
8
0
10
15.267992
20
91.522808
11
15.653747
21
92.094959
0
LINE
8
0
10
15.653747
20
92.094959
11
15.795200
21
92.795600
0
LINE
8
0
10
15.795200
20
92.795600
11
15.795200
21
92.795600
0
LINE
8
0
10
41.010500
20
121.005000
11
43.710500
21
121.005000
0
LINE
8
0
10
43.710500
20
121.005000
11
43.710500
21
111.005000
0
LINE
8
0
10
43.710500
20
111.005000
11
41.010500
21
111.005000
0
LINE
8
0
10
41.010500
20
111.005000
11
41.010500
21
103.706000
0
LINE
8
0
10
41.010500
20
103.706000
11
51.010500
21
103.706000
0
LINE
8
0
10
51.010500
20
103.706000
11
51.010500
21
101.006000
0
LINE
8
0
10
51.010500
20
101.006000
11
61.010400
21
101.006000
0
LINE
8
0
10
61.010400
20
101.006000
11
61.010400
21
103.706000
0
LINE
8
0
10
61.010400
20
103.706000
11
71.010400
21
103.706000
0
LINE
8
0
10
71.010400
20
103.706000
11
71.010400
21
101.006000
0
LINE
8
0
10
71.010400
20
101.006000
11
81.010400
21
101.006000
0
LINE
8
0
10
81.010400
20
101.006000
11
81.010400
21
103.706000
0
LINE
8
0
10
81.010400
20
103.706000
11
91.010400
21
103.706000
0
LINE
8
0
10
91.010400
20
103.706000
11
91.010400
21
111.005000
0
LINE
8
0
10
91.010400
20
111.005000
11
88.310400
21
111.005000
0
LINE
8
0
10
88.310400
20
111.005000
11
88.310400
21
121.005000
0
LINE
8
0
10
88.310400
20
121.005000
11
91.010400
21
121.005000
0
LINE
8
0
10
91.010400
20
121.005000
11
91.010400
21
128.305000
0
LINE
8
0
10
91.010400
20
128.305000
11
81.010400
21
128.305000
0
LINE
8
0
10
81.010400
20
128.305000
11
81.010400
21
131.005000
0
LINE
8
0
10
81.010400
20
131.005000
11
71.010400
21
131.005000
0
LINE
8
0
10
71.010400
20
131.005000
11
71.010400
21
128.305000
0
LINE
8
0
10
71.010400
20
128.305000
11
61.010400
21
128.305000
0
LINE
8
0
10
61.010400
20
128.305000
11
61.010400
21
131.005000
0
LINE
8
0
10
61.010400
20
131.005000
11
41.010500
21
131.005000
0
LINE
8
0
10
41.010500
20
131.005000
11
41.010500
21
121.005000
0
LINE
8
0
10
61.010400
20
162.005000
11
61.010400
21
141.005000
0
LINE
8
0
10
61.010400
20
141.005000
11
71.010400
21
141.005000
0
LINE
8
0
10
71.010400
20
141.005000
11
71.010400
21
143.705000
0
LINE
8
0
10
71.010400
20
143.705000
11
81.010400
21
143.705000
0
LINE
8
0
10
81.010400
20
143.705000
11
81.010400
21
141.005000
0
LINE
8
0
10
81.010400
20
141.005000
11
91.010400
21
141.005000
0
LINE
8
0
10
91.010400
20
141.005000
11
91.010400
21
143.705000
0
LINE
8
0
10
91.010400
20
143.705000
11
88.310400
21
143.705000
0
LINE
8
0
10
88.310400
20
143.705000
11
88.310400
21
148.005000
0
LINE
8
0
10
88.310400
20
148.005000
11
91.010400
21
148.005000
0
LINE
8
0
10
91.010400
20
148.005000
11
91.010400
21
155.005000
0
LINE
8
0
10
91.010400
20
155.005000
11
88.310400
21
155.005000
0
LINE
8
0
10
88.310400
20
155.005000
11
88.310400
21
162.005000
0
LINE
8
0
10
88.310400
20
162.005000
11
61.010400
21
162.005000
 0 
ENDSEC
 0 
EOF